<?xml version="1.0" encoding="utf-8"?>
<!-- Generator: Adobe Illustrator 19.1.0, SVG Export Plug-In . SVG Version: 6.00 Build 0)  -->
<svg version="1.1" id="Layer_1" xmlns="http://www.w3.org/2000/svg" xmlns:xlink="http://www.w3.org/1999/xlink" x="0px" y="0px"
	 viewBox="0 0 225 251" style="enable-background:new 0 0 225 251;" xml:space="preserve">
<style type="text/css">
	.st0{stroke:#000000;stroke-width:4;stroke-miterlimit:10;}
	.st1{fill:none;stroke:#000000;stroke-width:4;stroke-miterlimit:10;}
	.st2{clip-path:url(#SVGID_2_);}
	.st3{fill:#FFFFFF;stroke:#000000;stroke-width:4;stroke-miterlimit:10;}
</style>
<circle class="st0" cx="29.9" cy="14.2" r="0.6"/>
<circle class="st0" cx="54.8" cy="14.2" r="0.6"/>
<circle class="st0" cx="79.6" cy="14.2" r="0.6"/>
<circle class="st0" cx="104.5" cy="14.2" r="0.6"/>
<circle class="st0" cx="17.5" cy="31.9" r="0.6"/>
<circle class="st0" cx="42.3" cy="31.9" r="0.6"/>
<circle class="st0" cx="67.2" cy="31.9" r="0.6"/>
<circle class="st0" cx="92" cy="31.9" r="0.6"/>
<circle class="st0" cx="29.9" cy="49.4" r="0.6"/>
<circle class="st0" cx="54.8" cy="49.4" r="0.6"/>
<circle class="st0" cx="79.6" cy="49.4" r="0.6"/>
<circle class="st0" cx="104.5" cy="49.4" r="0.6"/>
<circle class="st0" cx="17.5" cy="67.1" r="0.6"/>
<circle class="st0" cx="42.3" cy="67.1" r="0.6"/>
<circle class="st0" cx="67.2" cy="67.1" r="0.6"/>
<circle class="st0" cx="92" cy="67.1" r="0.6"/>
<circle class="st0" cx="29.9" cy="84.8" r="0.6"/>
<circle class="st0" cx="54.8" cy="84.8" r="0.6"/>
<circle class="st0" cx="17.5" cy="102.5" r="0.6"/>
<circle class="st0" cx="42.3" cy="102.5" r="0.6"/>
<circle class="st0" cx="65.2" cy="102.5" r="0.6"/>
<circle class="st0" cx="29.9" cy="119.9" r="0.6"/>
<circle class="st0" cx="54.8" cy="119.9" r="0.6"/>
<circle class="st0" cx="17.5" cy="137.6" r="0.6"/>
<circle class="st0" cx="42.3" cy="137.6" r="0.6"/>
<circle class="st0" cx="67.2" cy="137.6" r="0.6"/>
<circle class="st0" cx="29.9" cy="155.1" r="0.6"/>
<circle class="st0" cx="54.8" cy="155.1" r="0.6"/>
<circle class="st0" cx="79.6" cy="155.1" r="0.6"/>
<circle class="st0" cx="42.3" cy="172.8" r="0.6"/>
<circle class="st0" cx="67.2" cy="172.8" r="0.6"/>
<circle class="st0" cx="92" cy="172.8" r="0.6"/>
<circle class="st0" cx="54.8" cy="190.4" r="0.6"/>
<circle class="st0" cx="79.6" cy="190.4" r="0.6"/>
<circle class="st0" cx="104.5" cy="190.4" r="0.6"/>
<circle class="st0" cx="67.2" cy="208.2" r="0.6"/>
<circle class="st0" cx="92" cy="208.2" r="0.6"/>
<circle class="st0" cx="104.5" cy="225.6" r="0.6"/>
<path class="st1" d="M112.5,245.4c-27.9-16.1-108-45.8-108-157.4V4.6c0,0,108,0,108,0h108v83.5C220.5,199.7,140.4,229.4,112.5,245.4
	z"/>
<g>
	<defs>
		<path id="SVGID_1_" d="M112.5,245.4c27.9-16.1,108-45.8,108-157.4V4.6c0,0-108,0-108,0C112.5,4.6,112.5,245.4,112.5,245.4z"/>
	</defs>
	<clipPath id="SVGID_2_">
		<use xlink:href="#SVGID_1_"  style="overflow:visible;"/>
	</clipPath>
	<g class="st2">
		<g>
			<path class="st1" d="M94,15c10-5,22-6,32-1c13,6,27,9,40,1"/>
		</g>
		<g>
			<path class="st1" d="M166,15c15-9,32-1,47,4c8,2,17,0,25-4"/>
		</g>
		<g>
			<path class="st1" d="M94,30c14-8,30-3,44,4c9,4,19,0,28-4"/>
		</g>
		<g>
			<path class="st1" d="M166,30c8-5,18-6,27-3c14,5,31,12,45,3"/>
		</g>
		<g>
			<path class="st1" d="M94,46c14-8,30-3,44,4c9,4,19,0,28-4"/>
		</g>
		<g>
			<path class="st1" d="M166,46c8-5,18-6,27-3c14,5,31,12,45,3"/>
		</g>
		<g>
			<path class="st1" d="M94,62c8-4,18-8,27-4c4,2,9,4,13,6c10,4,22,3,32-2"/>
		</g>
		<g>
			<path class="st1" d="M166,62c8-4,18-8,27-4c4,2,9,4,13,6c10,4,22,3,32-2"/>
		</g>
		<g>
			<path class="st1" d="M94,78c14-8,30-3,44,4c9,4,19,0,28-4"/>
		</g>
		<g>
			<path class="st1" d="M166,78c8-5,18-6,27-3c14,5,31,12,45,3"/>
		</g>
		<g>
			<path class="st1" d="M94,94c10-6,22-6,32-1c13,5,27,7,40,1"/>
		</g>
		<g>
			<path class="st1" d="M166,94c10-6,22-6,32-1c13,5,27,7,40,1"/>
		</g>
		<g>
			<path class="st1" d="M94,110c10-6,22-6,32-1c13,5,27,7,40,1"/>
		</g>
		<g>
			<path class="st1" d="M166,110c10-6,22-6,32-1c13,5,27,7,40,1"/>
		</g>
		<g>
			<path class="st1" d="M94,125c10-5,22-6,32-1c13,6,27,9,40,1"/>
		</g>
		<g>
			<path class="st1" d="M166,125c15-9,32-1,47,4c8,2,17,0,25-4"/>
		</g>
		<g>
			<path class="st1" d="M94,142c9-6,21-6,31-2c13,6,28,9,41,2"/>
		</g>
		<g>
			<path class="st1" d="M166,142c10-6,22-6,32-1c13,5,27,7,40,1"/>
		</g>
		<g>
			<path class="st1" d="M94,157c10-5,22-6,32-1c13,6,27,9,40,1"/>
		</g>
		<g>
			<path class="st1" d="M166,157c15-9,32-1,47,4c8,2,17,0,25-4"/>
		</g>
		<g>
			<path class="st1" d="M94,174c10-6,22-6,32-1c13,5,27,7,40,1"/>
		</g>
		<g>
			<path class="st1" d="M166,174c10-6,22-6,32-1c13,5,27,7,40,1"/>
		</g>
		<g>
			<path class="st1" d="M94,189c7-3,15-5,23-4c17,4,33,14,49,4"/>
		</g>
		<g>
			<path class="st1" d="M166,189c7-3,15-5,23-4c17,4,33,14,49,4"/>
		</g>
		<g>
			<path class="st1" d="M94,206c10-6,22-6,32-1c13,5,27,7,40,1"/>
		</g>
		<g>
			<path class="st1" d="M166,206c10-6,22-6,32-1c13,5,27,7,40,1"/>
		</g>
		<g>
			<path class="st1" d="M94,221c7-3,15-5,23-4c17,4,33,14,49,4"/>
		</g>
		<g>
			<path class="st1" d="M166,221c7-3,15-5,23-4c17,4,33,14,49,4"/>
		</g>
	</g>
</g>
<circle class="st3" cx="112.5" cy="110.6" r="42.2"/>
<line class="st1" x1="112.5" y1="4.6" x2="112.5" y2="245.4"/>
</svg>
